<?xml version="1.0" standalone="no"?>
<!DOCTYPE svg PUBLIC "-//W3C//DTD SVG 20010904//EN"
 "http://www.w3.org/TR/2001/REC-SVG-20010904/DTD/svg10.dtd">
<svg version="1.0" xmlns="http://www.w3.org/2000/svg"
 width="840.000000pt" height="840.000000pt" viewBox="0 0 840.000000 840.000000"
 preserveAspectRatio="xMidYMid meet">

<g transform="translate(0.000000,840.000000) scale(0.100000,-0.100000)"
fill="#000000" stroke="none">
<path d="M3915 8024 c-1227 -96 -2333 -772 -2982 -1824 -316 -512 -503 -1086
-554 -1695 -15 -179 -6 -628 16 -785 144 -1060 678 -1974 1518 -2599 669 -498
1459 -761 2287 -761 1241 0 2377 582 3116 1597 749 1029 932 2402 477 3593
-202 531 -502 988 -911 1388 -604 592 -1360 957 -2212 1068 -120 15 -630 27
-755 18z m270 -213 c89 -40 145 -128 153 -242 9 -129 -44 -237 -140 -282 -48
-24 -66 -26 -206 -29 -108 -2 -152 0 -152 8 0 7 9 14 20 17 19 5 20 14 20 190
0 251 -6 306 -37 320 -54 24 -17 30 212 35 69 1 100 -3 130 -17z m574 -17 c69
-20 141 -86 171 -157 46 -106 23 -238 -56 -326 -64 -72 -117 -94 -207 -89 -83
4 -130 24 -180 75 -58 58 -81 115 -81 208 0 65 4 90 25 135 64 138 188 196
328 154z m-1280 -80 c29 -75 27 -81 -14 -45 -20 17 -47 34 -60 37 -60 15 -125
-28 -125 -82 0 -51 39 -89 118 -114 102 -34 147 -63 171 -113 60 -125 -19
-233 -179 -245 l-69 -5 -25 58 c-14 31 -23 61 -21 66 3 4 24 -10 45 -31 36
-36 45 -40 91 -40 43 0 55 5 80 29 33 34 39 83 14 130 -15 31 -17 32 -119 67
-117 40 -166 92 -166 175 0 82 58 136 156 146 30 3 57 10 60 14 11 19 22 7 43
-47z m1772 -164 c1 -69 4 -170 8 -224 l6 -99 143 151 c78 83 142 158 142 167
0 18 10 19 64 3 53 -15 63 -24 33 -31 -20 -6 -29 -23 -60 -124 -20 -65 -50
-172 -66 -238 -27 -105 -29 -121 -16 -135 8 -9 15 -21 15 -27 0 -9 59 -28 65
-21 36 43 225 402 225 428 0 8 -9 24 -21 36 -36 38 -7 33 85 -16 81 -44 101
-69 43 -55 -30 8 -52 -24 -170 -253 l-89 -173 21 -23 c42 -44 19 -44 -66 2
-49 25 -90 50 -91 54 -5 10 -61 35 -124 54 -56 17 -62 31 -16 36 32 3 34 6 61
88 37 109 80 271 74 276 -6 6 -176 -173 -250 -263 -33 -40 -65 -72 -71 -70 -6
2 -9 66 -8 183 1 98 -2 206 -6 239 l-7 60 -28 -60 c-47 -99 -117 -281 -117
-300 0 -10 7 -27 17 -37 26 -29 10 -31 -61 -6 -65 23 -88 48 -43 48 25 0 35
17 139 245 92 201 88 189 72 220 -8 15 -14 29 -14 30 0 2 25 -7 55 -18 l55
-22 1 -125z m-2151 101 c0 -5 -11 -16 -24 -25 l-25 -16 20 -70 c21 -73 85
-259 121 -348 19 -49 23 -53 51 -50 58 6 36 -17 -41 -43 -42 -14 -85 -29 -94
-33 -25 -11 -23 16 2 32 11 7 20 19 20 28 0 21 -75 251 -118 362 -36 90 -37
92 -69 92 -54 0 -38 16 50 48 91 33 107 36 107 23z m-242 -143 c34 -61 29 -74
-12 -33 -30 30 -64 32 -117 5 -34 -18 -39 -25 -33 -43 10 -35 119 -266 161
-342 36 -65 41 -70 71 -69 21 1 32 -3 32 -12 0 -8 -5 -14 -10 -14 -6 0 -44
-17 -85 -37 -79 -38 -103 -38 -67 0 l22 23 -27 68 c-42 110 -172 366 -186 366
-17 0 -79 -39 -94 -59 -7 -9 -13 -33 -13 -53 0 -21 -4 -38 -8 -38 -8 0 -62
104 -62 120 0 6 10 10 23 10 26 0 341 152 352 170 9 15 14 9 53 -62z m3277
-293 c-7 -50 10 -351 23 -429 l7 -39 66 94 c36 52 83 122 104 157 35 57 37 65
25 87 -19 35 -8 40 26 12 16 -13 44 -32 62 -42 40 -24 42 -39 4 -30 -27 5 -34
0 -89 -72 -94 -122 -199 -274 -223 -322 l-21 -43 -24 22 c-21 20 -23 29 -18
72 7 55 -17 498 -26 498 -18 -2 -221 -313 -221 -339 0 -9 5 -22 12 -29 6 -6 9
-14 6 -18 -8 -7 -128 74 -128 87 0 5 12 6 28 3 26 -5 34 3 129 134 141 194
173 246 173 282 l0 31 45 -32 46 -33 -6 -51z m-3860 -36 c62 -63 254 -228 314
-269 19 -13 45 -23 58 -22 32 3 29 -22 -4 -37 -15 -7 -44 -26 -65 -43 -43 -34
-58 -31 -38 7 15 28 6 43 -63 97 l-38 30 -70 -46 c-78 -52 -77 -47 -33 -144
21 -48 26 -52 49 -46 35 9 32 -12 -4 -30 -16 -9 -42 -27 -59 -41 -31 -26 -56
-18 -32 9 8 11 7 31 -5 83 -29 128 -117 428 -132 451 -8 13 -13 25 -11 27 6 5
63 34 68 35 3 0 32 -27 65 -61z m2235 -114 c170 -20 212 -27 370 -64 993 -234
1802 -1005 2095 -1997 84 -282 109 -468 109 -804 1 -300 -7 -381 -64 -655 -19
-90 -85 -297 -130 -411 -219 -548 -582 -1000 -1075 -1336 -583 -399 -1329
-569 -2030 -463 -239 36 -404 80 -630 168 -916 356 -1592 1163 -1785 2130 -37
182 -50 335 -50 561 0 274 19 447 80 692 201 821 762 1518 1525 1894 324 159
607 243 965 285 148 17 470 18 620 0z m-2563 -85 c48 -48 58 -76 17 -45 -32
24 -76 18 -117 -16 -20 -17 -37 -36 -37 -43 0 -13 175 -209 268 -299 52 -52
62 -58 80 -48 24 13 45 15 40 4 -8 -19 -139 -136 -145 -130 -3 4 -1 19 6 33
11 24 8 31 -24 73 -45 58 -219 247 -262 284 l-31 27 -30 -25 c-42 -35 -59 -79
-44 -118 18 -49 4 -46 -44 8 -46 53 -52 65 -31 65 16 0 260 221 283 255 9 14
17 25 19 25 1 0 25 -23 52 -50z m4803 -202 c0 -5 -17 -35 -38 -66 -22 -31 -69
-111 -105 -178 -122 -223 -138 -277 -87 -300 22 -9 33 -6 80 24 56 35 192 140
287 221 46 38 51 47 46 72 -8 43 8 34 51 -28 22 -31 68 -91 103 -134 34 -43
63 -80 63 -83 0 -3 -13 -19 -29 -36 -28 -31 -47 -28 -35 4 9 23 -30 96 -74
139 l-38 37 -72 -51 c-40 -29 -72 -57 -72 -62 0 -20 94 -120 122 -129 32 -11
36 -24 9 -33 -10 -3 -26 -14 -36 -25 -25 -27 -35 -25 -35 8 0 25 -81 152 -98
152 -15 0 -155 -116 -164 -136 -13 -27 14 -76 68 -123 32 -28 47 -35 97 -43
10 -2 17 -7 16 -13 -3 -13 -92 -47 -100 -37 -4 4 -37 48 -75 97 -91 121 -148
189 -213 253 -54 53 -61 74 -19 55 21 -10 27 -5 65 56 l42 66 -61 62 c-62 62
-62 63 -88 46 -105 -68 -102 -65 -96 -96 7 -36 1 -33 -62 24 -52 48 -57 63
-16 53 17 -5 61 13 156 61 238 120 336 175 342 192 6 14 11 12 36 -12 17 -16
30 -33 30 -37z m-5219 -151 c-9 -24 -6 -31 37 -73 81 -82 305 -274 319 -274 7
0 22 5 33 12 41 26 30 -4 -24 -63 -31 -34 -56 -66 -56 -71 0 -4 -7 -8 -16 -8
-11 0 -14 5 -9 18 18 44 15 50 -82 142 -115 108 -252 220 -270 220 -7 0 -22
-5 -33 -12 -42 -27 -29 5 29 68 33 37 61 72 61 77 0 8 3 8 10 1 7 -7 8 -19 1
-37z m-156 -224 c30 -15 55 -31 55 -35 0 -4 -21 -8 -46 -8 -25 0 -55 -5 -67
-11 -59 -32 -76 -107 -34 -147 40 -38 74 -37 175 2 50 20 102 36 114 36 74 0
151 -56 168 -122 18 -66 -6 -124 -89 -213 -31 -34 -65 -77 -76 -98 -15 -29
-30 -40 -65 -51 -51 -17 -172 -36 -223 -36 -28 0 -36 -5 -50 -35 -9 -20 -17
-37 -17 -39 0 -1 41 -22 90 -46 l91 -43 24 23 c28 27 46 19 27 -11 -7 -11 -26
-47 -43 -80 -33 -64 -49 -75 -49 -31 0 25 -10 34 -77 74 -43 26 -140 77 -215
114 -135 66 -138 67 -158 49 -38 -34 -31 -7 26 109 44 89 65 121 90 137 101
62 221 5 241 -115 l6 -38 61 6 c127 14 256 57 256 85 0 4 -21 17 -46 29 -26
13 -44 25 -41 28 3 3 33 6 66 7 54 2 64 6 92 33 25 25 32 41 33 74 1 36 -4 46
-36 76 -47 42 -72 43 -163 4 -122 -52 -217 -36 -265 42 -37 61 -20 135 45 198
19 19 35 40 35 47 0 17 1 17 65 -14z m6007 -460 l17 -46 -50 -82 c-53 -89
-184 -364 -176 -371 6 -7 239 104 295 140 33 20 42 31 37 46 -3 10 -2 21 4 24
10 6 75 -123 66 -132 -3 -3 -14 3 -24 12 -19 17 -24 16 -143 -34 -141 -61
-291 -134 -330 -162 l-28 -19 -10 26 c-5 14 -10 28 -10 30 0 1 17 29 39 61 45
68 223 434 212 434 -5 0 -86 -39 -182 -87 -168 -85 -174 -89 -177 -120 -2 -18
-6 -33 -10 -33 -4 0 -20 28 -36 63 -17 34 -31 65 -34 70 -7 13 25 7 37 -7 14
-17 63 2 298 114 117 56 144 73 158 100 19 37 23 35 47 -27z m-6473 -400 c3
-2 -12 -17 -32 -34 -28 -23 -41 -46 -59 -99 -13 -44 -18 -73 -12 -79 13 -11
141 -61 158 -61 21 0 60 123 53 167 -6 32 -4 35 16 29 12 -4 34 -9 50 -12 32
-8 35 -19 8 -34 -21 -11 -84 -161 -73 -171 16 -15 174 -60 199 -57 21 2 33 13
47 43 27 54 32 134 13 172 -9 17 -14 33 -10 36 10 11 93 -57 88 -73 -2 -8 -28
-86 -57 -172 -47 -139 -70 -182 -74 -137 -1 8 -2 19 -3 25 -1 13 -153 75 -311
127 -151 50 -157 51 -171 26 -7 -13 -14 -18 -20 -12 -6 6 1 37 20 84 16 41 42
113 57 161 l28 88 40 -7 c23 -3 43 -8 45 -10z m6657 -211 c53 -27 117 -100
132 -150 58 -192 -83 -375 -288 -375 -164 0 -282 111 -282 266 0 130 77 227
217 274 57 19 170 11 221 -15z m-6862 -206 c8 -32 160 -129 413 -263 60 -32
89 -53 84 -61 -4 -6 -49 -16 -101 -22 -249 -28 -459 -66 -483 -87 -24 -22 -31
-11 -19 29 6 18 14 54 18 81 7 49 20 63 26 25 2 -18 11 -24 36 -26 37 -4 329
35 350 47 12 7 -160 106 -291 168 l-39 17 -18 -24 c-10 -14 -21 -23 -23 -20
-7 7 26 160 34 160 4 0 10 -11 13 -24z m7033 -396 c50 -30 65 -63 73 -153 4
-45 6 -83 5 -85 -6 -7 -117 -33 -121 -29 -3 2 14 22 36 44 34 34 40 47 40 81
0 57 -34 96 -83 96 -49 0 -81 -31 -125 -122 -40 -83 -84 -126 -144 -143 -81
-21 -164 27 -189 109 -5 21 -9 68 -7 107 l3 69 59 18 c33 10 62 16 65 13 3 -3
-14 -23 -38 -43 -38 -33 -44 -43 -48 -88 -5 -46 -2 -55 24 -84 26 -29 36 -33
76 -33 59 0 78 17 127 113 21 41 48 86 60 99 49 51 132 65 187 31z m-7127
-155 c0 -17 7 -28 23 -34 30 -11 193 -29 350 -37 l127 -7 11 31 c17 49 33 40
25 -14 -3 -26 -6 -71 -6 -100 0 -40 -4 -54 -14 -54 -9 0 -16 12 -18 27 -3 24
-9 29 -48 35 -57 10 -214 25 -346 34 l-101 6 -13 -31 c-18 -43 -34 -40 -26 7
3 20 6 65 6 100 0 48 3 62 15 62 9 0 15 -9 15 -25z m7171 -215 c57 0 59 -1 49
-20 -7 -13 -10 -91 -9 -218 l1 -197 -71 -3 c-72 -3 -97 11 -42 23 44 9 64 38
69 99 l4 54 -63 7 c-35 3 -145 5 -244 3 l-180 -3 -13 -27 c-23 -49 -31 -31
-29 67 1 65 5 95 13 95 7 0 14 -11 18 -24 8 -31 47 -36 297 -36 l199 0 0 45
c0 59 -22 100 -60 113 -16 6 -30 16 -30 23 0 6 7 8 16 5 9 -3 42 -6 75 -6z
m-7196 -62 c10 -23 10 -23 230 -21 121 2 241 7 268 11 44 9 47 8 47 -12 0 -31
-11 -43 -72 -84 -31 -20 -118 -91 -194 -157 -75 -66 -144 -125 -153 -132 -9
-6 -13 -14 -10 -18 7 -6 322 11 377 21 23 5 34 13 38 30 11 43 24 25 24 -33 0
-32 3 -68 6 -80 9 -32 -13 -30 -28 2 -11 24 -14 25 -117 25 -194 -1 -370 -16
-390 -34 -27 -25 -31 -20 -31 37 0 53 1 54 48 84 74 49 342 283 342 300 0 5
-93 1 -288 -13 -76 -6 -84 -9 -92 -30 -18 -46 -30 -25 -30 51 0 77 8 92 25 53z
m6685 -408 c0 -10 8 -24 19 -29 22 -12 244 -54 375 -72 87 -11 90 -11 107 10
21 25 42 28 35 4 -15 -49 -26 -113 -26 -153 0 -25 -9 -63 -19 -86 -54 -118
-218 -123 -276 -9 -11 22 -21 42 -22 44 -5 9 -193 -92 -231 -125 -47 -40 -53
-67 -19 -95 85 -74 393 -299 408 -299 22 0 22 -1 7 -52 -9 -32 -15 -38 -32
-34 -53 13 -246 28 -382 29 -119 2 -153 -1 -169 -13 -31 -23 -27 -58 10 -85
37 -29 277 -153 357 -185 55 -22 58 -23 77 -6 35 31 29 2 -14 -75 -23 -42 -57
-110 -76 -150 -18 -41 -34 -75 -35 -77 -4 -6 -84 21 -84 29 0 4 9 10 20 14 37
12 110 124 110 169 0 7 -36 31 -80 55 l-79 42 -37 -72 c-26 -52 -34 -80 -30
-101 7 -34 5 -34 -52 -6 -41 20 -43 22 -27 35 11 7 22 13 26 13 6 0 79 132 79
144 0 9 -177 96 -194 96 -24 0 -54 -39 -77 -99 -18 -49 -20 -62 -10 -100 6
-24 9 -46 6 -49 -3 -3 -23 12 -44 33 l-39 40 94 190 c52 105 101 214 110 243
16 55 34 69 34 28 0 -32 2 -33 86 -41 l71 -7 26 71 c15 40 27 78 27 86 0 8
-29 30 -65 51 -64 35 -67 36 -86 19 -26 -25 -32 -15 -15 27 8 19 24 70 35 113
11 42 29 84 38 91 32 25 137 80 195 103 53 21 56 24 60 62 4 47 1 49 -114 56
-87 6 -87 6 -99 -21 -18 -39 -33 -32 -25 12 4 20 10 63 13 95 4 38 10 57 19
57 8 0 14 -9 14 -20z m-6151 -195 c92 -47 132 -210 72 -293 -29 -42 -87 -67
-221 -97 -191 -43 -250 -63 -250 -85 0 -18 -20 -40 -20 -23 0 15 -28 138 -35
156 -10 25 13 22 35 -5 l18 -22 127 23 c157 29 236 55 274 90 55 51 53 127 -4
189 -32 36 -36 37 -97 35 -35 -1 -130 -19 -213 -40 -145 -37 -150 -39 -153
-65 -4 -36 -32 -38 -32 -2 0 14 -5 45 -11 70 -13 52 -7 65 18 36 18 -21 20
-21 98 -7 44 9 116 24 160 34 100 23 196 26 234 6z m229 -647 c42 -81 44 -102
6 -67 l-22 21 -89 -45 c-48 -24 -126 -68 -173 -97 l-85 -52 170 6 c94 3 199
11 234 16 38 7 68 7 73 2 5 -5 -37 -56 -104 -123 -114 -116 -225 -239 -214
-239 14 0 214 84 286 120 67 34 80 44 80 65 0 46 18 35 49 -31 33 -70 34 -88
3 -61 -21 19 -33 16 -315 -96 -144 -56 -159 -64 -164 -89 -3 -16 -9 -28 -13
-28 -3 0 -17 22 -30 49 l-23 50 126 133 c155 165 183 198 165 198 -102 -1
-406 -24 -415 -32 -8 -6 -15 -9 -16 -7 -10 12 -57 98 -57 103 0 3 11 1 24 -5
29 -13 48 -4 279 133 157 94 167 101 167 130 0 16 4 28 9 26 5 -1 27 -38 49
-80z m5399 -589 c-8 -29 234 -418 288 -464 l24 -20 -27 -32 -27 -32 -110 55
c-171 84 -360 156 -403 152 -20 -2 -37 -1 -37 2 0 16 101 138 108 131 5 -5 4
-18 -3 -31 -6 -12 -10 -23 -8 -25 9 -8 129 -65 137 -65 5 0 33 29 61 65 l52
65 -43 56 c-47 61 -64 73 -82 55 -6 -6 -15 -11 -19 -11 -18 0 -6 24 32 67 22
25 40 50 40 55 0 5 5 6 11 2 6 -3 9 -15 6 -25z m-5045 -34 c47 -31 94 -102
103 -155 7 -43 -13 -100 -48 -138 -12 -14 -74 -64 -137 -112 -138 -106 -175
-143 -166 -165 15 -40 -9 -32 -39 12 -18 26 -42 57 -54 67 -19 17 -29 46 -16
46 3 0 17 -7 30 -16 24 -15 27 -14 122 52 126 86 178 130 208 174 62 90 1 210
-107 210 -53 0 -83 -18 -243 -147 -102 -82 -110 -91 -107 -121 1 -18 -2 -32
-8 -32 -5 0 -10 3 -10 8 0 4 -18 29 -40 56 -40 48 -45 76 -10 54 25 -16 37 -9
186 104 196 148 245 163 336 103z m345 -405 c111 -108 140 -150 82 -120 -19
11 -36 -3 -191 -159 -159 -158 -170 -172 -165 -199 3 -16 4 -32 1 -34 -2 -3
-38 28 -80 69 -79 77 -90 101 -30 63 l36 -22 38 30 c20 16 92 86 160 156 141
145 146 158 85 218 -45 43 -79 58 -135 58 -49 0 -45 6 24 36 29 12 53 22 53
23 0 0 55 -53 122 -119z m4273 -45 c0 -3 -5 -14 -12 -24 -14 -24 3 -51 126
-197 143 -170 170 -196 202 -192 35 4 41 -13 10 -32 -14 -8 -47 -36 -74 -62
-68 -65 -95 -67 -47 -4 l24 32 -33 50 c-57 84 -236 285 -263 295 -21 8 -33 5
-64 -16 -50 -33 -72 -68 -79 -123 -5 -45 -30 -73 -30 -34 0 11 -6 38 -14 60
l-15 41 63 49 c34 27 89 75 122 105 51 49 84 69 84 52z m-4086 -124 c16 -18
86 -72 199 -155 41 -30 42 -46 1 -38 -31 6 -33 4 -178 -183 -128 -165 -146
-194 -133 -223 17 -37 0 -37 -41 0 -21 19 -59 49 -86 67 -56 39 -54 50 6 26
l43 -17 44 49 c66 73 220 282 227 308 8 34 -10 61 -63 91 -37 23 -57 27 -106
26 -67 -2 -67 1 1 39 58 33 65 34 86 10z m3786 -135 c0 -8 -4 -17 -9 -20 -11
-7 -8 -27 56 -291 31 -126 62 -238 70 -247 13 -15 11 -18 -22 -35 l-37 -19
-121 119 c-149 145 -273 247 -304 247 -37 0 -36 18 4 39 21 11 53 31 72 45 40
30 50 27 31 -9 -12 -23 -11 -28 16 -62 17 -20 42 -45 56 -56 l26 -19 70 45
c79 51 76 39 37 150 -16 45 -19 48 -46 42 -40 -9 -37 10 4 31 17 9 43 25 56
35 28 23 41 24 41 5z m-3446 -111 c38 -25 73 -45 78 -45 4 0 8 -7 8 -15 0 -11
-5 -12 -26 -5 -14 6 -27 10 -29 10 -15 0 -186 -264 -239 -369 l-27 -53 21 -23
c31 -33 7 -42 -32 -12 -18 13 -54 37 -80 52 -57 32 -61 46 -14 38 32 -5 37 -2
68 41 54 77 167 257 198 317 29 56 29 57 10 74 -20 18 -26 35 -12 35 4 0 38
-21 76 -45z m241 -130 c69 -18 138 -62 178 -113 100 -130 34 -367 -125 -446
-90 -45 -196 -32 -292 34 -25 16 -54 30 -66 30 -12 0 -20 5 -18 13 40 138 58
164 66 96 19 -167 229 -210 332 -68 63 88 89 224 56 302 -18 43 -78 95 -119
102 -67 13 -79 5 -111 -67 -29 -66 -29 -68 -11 -88 30 -33 13 -32 -63 3 -74
33 -89 47 -49 47 19 0 31 14 63 78 21 42 44 80 49 84 15 12 45 9 110 -7z
m2772 -86 c99 -48 174 -176 175 -297 1 -126 -73 -216 -212 -262 -36 -12 -73
-28 -82 -37 -15 -14 -19 -11 -39 29 -12 23 -30 55 -41 71 -24 34 -13 34 48 2
56 -30 94 -31 149 -6 48 22 89 67 105 116 43 131 -111 355 -245 355 -79 0
-155 -63 -176 -145 -12 -48 -29 -60 -29 -21 0 13 -3 44 -6 68 -6 45 -6 46 41
78 104 72 226 91 312 49z m-2317 -104 c80 -24 94 -38 43 -43 -26 -3 -34 -10
-51 -50 -26 -60 -108 -313 -121 -372 -10 -42 -9 -46 16 -67 39 -32 24 -37 -38
-14 -30 11 -73 25 -97 31 -47 12 -48 30 -2 30 25 0 32 6 46 38 26 62 124 364
130 402 5 32 3 37 -21 48 -28 13 -25 38 4 26 9 -4 50 -17 91 -29z m1815 -55
c45 -28 70 -81 110 -231 55 -207 63 -228 91 -235 28 -7 32 -24 5 -24 -10 0
-49 -9 -86 -21 -72 -22 -93 -18 -57 11 28 23 28 46 -4 189 -30 137 -67 224
-105 251 -55 40 -154 17 -195 -45 -23 -36 -15 -107 31 -275 44 -161 49 -170
80 -170 48 0 24 -17 -46 -35 -69 -16 -102 -13 -66 6 25 14 22 44 -23 229 -42
175 -46 212 -29 257 38 102 198 152 294 93z m-1452 -32 l48 -21 -3 -66 c-3
-72 -18 -84 -32 -26 -11 46 -57 92 -100 101 -65 12 -126 -44 -126 -116 0 -24
15 -47 75 -110 111 -119 123 -194 45 -272 -34 -34 -43 -38 -89 -38 -28 0 -68
7 -90 16 -21 8 -45 14 -53 12 -17 -4 -18 -1 -18 73 0 66 17 78 32 22 25 -98
176 -113 193 -20 9 47 -6 76 -70 137 -31 30 -66 73 -77 94 -34 66 -21 166 26
205 53 44 148 48 239 9z"/>
<path d="M3978 7783 c-33 -5 -35 -22 -27 -248 8 -200 14 -221 65 -231 46 -8
127 9 165 37 118 84 94 361 -37 424 -39 19 -116 27 -166 18z"/>
<path d="M4627 7755 c-197 -70 -183 -459 17 -492 91 -14 170 37 207 135 17 46
20 72 17 137 -7 122 -57 200 -146 225 -46 12 -48 12 -95 -5z"/>
<path d="M2220 7123 c0 -8 61 -227 64 -230 2 -2 101 61 115 73 2 2 -2 11 -9
19 -21 25 -170 146 -170 138z"/>
<path d="M4086 6779 c-252 -25 -487 -133 -672 -311 -102 -98 -170 -185 -224
-290 l-41 -78 24 0 c18 0 28 8 38 33 27 65 132 209 210 286 212 213 475 321
779 321 299 0 552 -103 768 -314 76 -74 191 -227 223 -298 13 -29 49 -39 49
-15 0 19 -87 161 -142 232 -234 303 -626 471 -1012 434z"/>
<path d="M3339 6722 c-2 -5 -55 -31 -118 -58 -586 -249 -1074 -732 -1336
-1322 -25 -56 -45 -105 -45 -107 0 -18 39 3 92 51 144 129 283 218 430 275 74
29 88 38 88 56 l0 23 -57 -21 c-142 -52 -302 -144 -411 -236 l-53 -45 25 55
c72 162 228 400 378 574 226 261 552 505 852 637 l59 26 -44 -47 c-99 -107
-188 -241 -257 -386 -36 -77 -39 -97 -14 -97 12 0 30 29 62 97 70 151 150 265
276 390 106 106 111 113 94 128 -10 9 -20 12 -21 7z"/>
<path d="M5005 6700 c-18 -7 -18 -9 9 -19 48 -19 216 -198 289 -307 36 -55 85
-139 107 -187 31 -67 44 -87 60 -87 11 0 20 4 20 9 0 16 -115 235 -149 285
-18 26 -67 88 -107 137 l-74 89 57 -25 c32 -14 103 -51 158 -81 448 -249 799
-610 1032 -1062 58 -111 62 -124 37 -101 -125 111 -366 248 -481 273 -28 7
-33 5 -33 -11 0 -15 16 -25 65 -42 143 -51 302 -147 437 -264 46 -40 91 -76
102 -80 16 -6 17 -4 12 20 -11 45 -128 280 -190 383 -276 452 -716 832 -1200
1035 -113 47 -119 49 -151 35z"/>
<path d="M4105 6644 c-11 -2 -40 -10 -65 -16 -176 -43 -343 -206 -410 -399
-35 -99 -38 -129 -12 -129 15 0 22 13 31 54 23 102 85 212 164 291 155 155
363 203 562 131 173 -63 314 -222 361 -409 13 -53 20 -67 35 -67 25 0 24 21
-2 101 -69 213 -200 351 -399 421 -54 19 -221 33 -265 22z"/>
<path d="M3495 6372 c-63 -54 -157 -166 -194 -232 l-22 -40 23 0 c17 0 33 15
60 58 43 66 143 177 133 147 -10 -32 -33 -127 -40 -168 -6 -36 -5 -38 17 -35
17 2 24 10 26 33 4 49 32 147 59 203 22 47 24 56 11 69 -13 12 -22 8 -73 -35z"/>
<path d="M4819 6404 c-10 -13 -8 -25 15 -72 16 -31 36 -95 46 -142 14 -71 20
-85 36 -85 16 0 18 6 16 38 -2 21 -12 68 -22 105 -10 37 -17 68 -16 70 6 5
108 -120 139 -170 29 -46 67 -65 67 -35 0 37 -165 233 -241 288 -24 17 -28 17
-40 3z"/>
<path d="M2480 5208 c0 -914 6 -1067 50 -1321 48 -281 141 -570 262 -811 269
-537 722 -1009 1311 -1366 l88 -53 42 23 c83 47 271 172 383 257 681 511 1089
1146 1233 1918 47 252 51 347 51 1310 l0 905 -1710 0 -1710 0 0 -862z m3220
-107 c0 -427 -4 -816 -10 -888 -22 -267 -78 -538 -160 -764 -53 -145 -170
-385 -250 -512 l-63 -99 -36 9 c-20 4 -74 8 -121 7 -76 -1 -97 -6 -200 -47
-188 -75 -274 -74 -452 2 l-93 40 -3 116 -3 116 -32 -8 c-40 -10 -132 -10
-174 1 l-33 9 0 -119 0 -119 -113 -45 c-104 -42 -118 -45 -202 -44 -91 0 -182
22 -264 63 -79 40 -199 50 -301 26 -24 -6 -31 2 -103 123 -199 334 -307 637
-374 1056 -14 86 -17 229 -20 969 l-4 867 1505 0 1506 0 0 -759z m-1431 -2462
c35 -5 107 -28 160 -51 52 -22 119 -44 148 -47 78 -11 174 6 263 45 79 34 156
54 212 54 l30 0 -33 -42 c-55 -70 -262 -274 -297 -292 -44 -23 -138 -31 -201
-17 -28 6 -95 29 -147 52 -76 32 -112 41 -177 46 -102 7 -159 -5 -284 -59 -92
-39 -104 -42 -193 -42 -74 -1 -103 3 -130 18 -37 20 -244 223 -300 295 l-34
44 74 -7 c53 -5 104 -20 175 -49 96 -40 104 -41 210 -41 100 -1 115 2 167 27
85 41 107 49 173 62 77 17 106 17 184 4z m126 -507 l88 -43 -64 -45 c-84 -59
-224 -144 -238 -144 -12 0 -132 73 -235 143 l-59 40 59 30 c106 55 159 67 264
64 89 -2 102 -5 185 -45z"/>
<path d="M3013 5746 l-33 -103 -92 19 c-51 10 -98 17 -105 16 -6 -2 17 -37 53
-78 35 -41 64 -79 64 -83 0 -5 -30 -42 -66 -84 -36 -41 -63 -77 -61 -79 2 -2
48 5 102 16 54 11 100 19 102 17 1 -2 17 -44 34 -93 17 -49 34 -92 38 -96 4
-4 22 37 40 92 18 55 34 100 36 100 1 0 47 -9 100 -20 54 -11 100 -18 103 -16
2 3 -25 39 -62 79 -36 41 -66 78 -66 83 0 5 30 42 65 83 36 41 63 76 61 79 -4
3 -146 -22 -188 -34 -14 -4 -23 14 -50 100 -18 58 -35 106 -38 106 -3 0 -20
-47 -37 -104z m91 -160 c9 1 32 5 52 8 32 7 34 5 26 -11 -6 -10 -20 -27 -31
-37 -28 -25 -27 -37 9 -71 17 -16 30 -32 30 -36 0 -3 -21 -3 -46 2 -25 5 -49
7 -53 4 -4 -2 -13 -22 -21 -44 -7 -23 -16 -41 -20 -41 -4 0 -13 20 -20 45 -14
48 -15 49 -75 35 -22 -5 -42 -7 -44 -4 -3 2 11 20 29 39 25 26 32 39 25 49 -6
8 -21 29 -34 46 l-24 33 37 -7 c21 -4 44 -10 52 -13 13 -5 20 6 49 82 6 17 10
12 25 -30 12 -34 22 -50 34 -49z"/>
<path d="M3960 5763 c0 -4 23 -47 50 -95 l50 -88 0 -250 0 -250 -313 0 -312 0
-85 50 c-47 27 -91 50 -97 50 -10 0 -13 -49 -13 -210 0 -142 3 -210 11 -210 6
0 48 23 95 50 l85 50 314 0 315 0 0 -125 c0 -92 3 -126 13 -129 6 -2 34 -10
61 -20 45 -15 53 -15 105 0 31 9 62 18 69 20 9 2 12 37 12 129 l0 125 314 0
314 0 85 -50 c47 -27 90 -50 96 -50 8 0 11 64 11 210 0 162 -3 210 -13 210 -6
0 -50 -22 -97 -50 l-85 -50 -312 0 -313 0 0 252 0 252 50 88 c28 48 50 90 50
93 0 3 -103 5 -230 5 -126 0 -230 -3 -230 -7z"/>
<path d="M5090 4538 c-30 -11 -105 -25 -167 -31 -95 -9 -139 -8 -284 7 -191
20 -293 17 -394 -15 -57 -17 -66 -18 -105 -4 -97 34 -209 40 -393 20 -228 -24
-412 -19 -478 13 -75 37 -80 33 -73 -48 l7 -70 -47 0 -46 0 0 -590 0 -590 456
0 c433 0 458 -1 488 -19 77 -48 190 -48 256 -1 27 19 45 20 489 20 l461 0 0
590 0 590 -45 0 -45 0 0 75 c0 84 3 82 -80 53z m30 -98 c0 -59 21 -90 62 -90
l28 0 -2 -532 -3 -533 -444 -3 c-440 -2 -443 -2 -474 -24 -23 -16 -50 -24 -97
-26 -57 -3 -70 -1 -103 22 l-38 26 -444 0 -445 0 0 535 0 535 45 0 45 0 0 61
c0 59 1 61 23 55 81 -22 212 -29 339 -16 276 26 305 28 385 19 46 -5 107 -18
137 -30 49 -18 58 -19 83 -6 79 40 231 50 432 27 131 -15 331 -8 406 13 28 8
53 15 58 16 4 0 7 -21 7 -49z"/>
<path d="M5040 4443 c-77 -23 -223 -26 -386 -9 -83 9 -177 16 -210 16 -72 0
-188 -24 -220 -45 l-24 -15 0 -536 0 -535 28 19 c53 38 108 47 272 43 382 -9
483 -7 537 12 28 10 54 25 57 33 9 23 7 1022 -1 1027 -5 2 -28 -2 -53 -10z
m-414 -59 c145 -15 358 -15 397 1 16 7 17 -18 15 -466 l-3 -474 -55 -13 c-55
-13 -186 -12 -456 4 -101 6 -210 -4 -259 -22 -13 -5 -15 49 -15 470 0 541 -10
488 92 505 80 13 122 12 284 -5z"/>
<path d="M4339 4181 c-33 -33 -37 -67 -14 -111 17 -32 44 -43 96 -38 24 2 35
9 37 22 4 18 3 19 -13 3 -17 -18 -52 -22 -72 -9 -19 12 -35 64 -28 92 15 58
70 80 99 38 11 -16 16 -18 16 -7 0 48 -77 54 -121 10z"/>
<path d="M4498 4198 c14 -14 16 -131 3 -156 -8 -15 -2 -17 47 -17 54 0 71 7
72 30 0 5 -5 4 -12 -3 -7 -7 -25 -12 -40 -12 -25 0 -28 3 -28 35 0 28 4 35 19
35 11 0 22 -6 24 -12 3 -7 6 0 6 17 1 22 -2 26 -11 17 -24 -24 -38 -13 -38 28
0 35 3 40 23 40 13 0 28 -5 35 -12 9 -9 12 -8 12 5 0 14 -10 17 -62 17 -48 0
-59 -3 -50 -12z"/>
<path d="M4655 4119 l0 -94 35 1 c62 1 71 4 95 29 31 30 34 92 6 126 -14 18
-31 23 -77 27 l-59 4 0 -93z m102 59 c41 -38 22 -133 -27 -139 -38 -4 -40 0
-40 81 0 76 1 80 22 80 12 0 32 -10 45 -22z"/>
<path d="M4870 4190 c-42 -42 -36 -117 12 -153 23 -17 34 -19 65 -11 70 17 95
112 42 165 -26 26 -92 26 -119 -1z m92 -7 c26 -23 25 -113 -1 -137 -28 -25
-53 -17 -74 24 -19 37 -17 90 4 116 15 19 48 18 71 -3z"/>
<path d="M4396 3881 c-24 -27 -15 -61 23 -84 30 -18 47 -49 36 -67 -11 -18
-52 -11 -68 13 -12 16 -16 18 -16 7 -1 -25 20 -40 54 -40 65 0 77 62 20 106
-25 18 -35 34 -33 48 4 27 38 33 56 10 13 -18 14 -18 10 1 -5 29 -58 33 -82 6z"/>
<path d="M4539 3815 c2 -66 0 -90 -10 -96 -9 -6 0 -8 26 -8 22 0 34 3 28 6 -9
3 -13 31 -13 89 0 46 3 84 6 84 3 0 14 -5 25 -10 25 -14 26 -65 2 -79 -15 -9
-15 -10 -2 -11 8 0 22 6 31 13 45 36 18 86 -52 94 l-45 5 4 -87z"/>
<path d="M4688 3888 c7 -7 12 -41 12 -85 0 -58 -3 -74 -17 -82 -14 -8 0 -10
53 -11 57 0 73 3 78 16 10 26 7 28 -13 10 -11 -10 -30 -16 -43 -14 -19 2 -24
10 -26 41 -3 31 0 37 15 37 11 0 24 -5 31 -12 9 -9 12 -5 11 18 0 16 -3 23 -6
17 -2 -7 -16 -13 -29 -13 -21 0 -24 4 -24 40 0 43 13 50 51 30 15 -8 19 -7 19
5 0 12 -13 15 -62 15 -48 0 -59 -3 -50 -12z"/>
<path d="M4878 3889 c-31 -18 -22 -63 18 -94 24 -19 34 -33 32 -48 -4 -31 -42
-34 -63 -5 l-16 23 3 -25 c2 -21 9 -26 39 -28 40 -3 69 17 69 49 0 18 -13 35
-59 72 -12 10 -21 26 -19 35 5 24 36 27 60 5 21 -17 21 -17 15 0 -4 10 -7 21
-7 23 0 8 -55 3 -72 -7z"/>
<path d="M3272 3934 l3 -518 50 -20 c43 -17 74 -20 215 -20 91 -1 224 3 295 8
147 9 252 -6 305 -44 l30 -21 -2 538 -3 538 -39 19 c-65 32 -188 42 -339 27
-273 -26 -426 -25 -500 4 -16 7 -17 -20 -15 -511z m803 444 l40 -13 3 -479 c2
-453 1 -478 -15 -471 -51 19 -139 27 -258 21 -71 -4 -185 -9 -253 -13 -122 -5
-232 7 -259 29 -10 8 -13 114 -13 467 l0 457 138 -3 c85 -3 182 2 257 11 134
17 299 14 360 -6z"/>
<path d="M3424 4188 c7 -13 26 -55 41 -95 15 -40 32 -70 36 -67 5 3 9 10 9 16
0 17 52 131 68 151 14 15 13 17 -9 17 -19 0 -24 -6 -25 -28 -1 -15 -10 -45
-19 -67 l-18 -40 -24 54 c-13 30 -22 60 -19 68 4 9 -4 13 -25 13 -28 0 -29 -1
-15 -22z"/>
<path d="M3628 4198 c14 -14 16 -150 2 -163 -5 -6 1 -10 18 -10 l27 0 -3 84
c-3 62 0 86 10 92 8 6 -1 9 -26 9 -31 0 -37 -3 -28 -12z"/>
<path d="M3717 4203 c-4 -3 -7 -11 -7 -17 0 -6 5 -5 12 2 7 7 22 12 35 12 22
0 23 -3 23 -78 0 -43 -5 -83 -10 -88 -7 -7 0 -10 24 -10 22 1 31 5 25 11 -5 5
-9 44 -9 87 0 75 1 78 23 78 13 0 28 -5 35 -12 9 -9 12 -8 12 5 0 15 -11 17
-78 17 -43 0 -82 -3 -85 -7z"/>
<path d="M3939 4183 c-56 -146 -58 -153 -43 -153 8 0 13 3 11 8 -3 4 -1 17 4
30 13 33 65 31 73 -3 4 -14 4 -30 2 -34 -3 -4 8 -8 23 -7 18 1 26 5 21 11 -4
6 -20 47 -34 93 -15 45 -32 82 -37 82 -5 0 -14 -12 -20 -27z m26 -60 c5 -19 2
-23 -14 -23 -21 0 -26 15 -15 45 8 19 19 10 29 -22z"/>
<path d="M3478 3821 c3 -55 0 -86 -8 -96 -11 -13 -5 -15 39 -15 85 0 120 28
121 96 0 56 -30 83 -101 91 l-54 5 3 -81z m105 37 c40 -47 7 -144 -46 -136
-20 3 -22 10 -25 72 -2 38 -1 75 2 83 8 19 45 8 69 -19z"/>
<path d="M3671 3821 c3 -44 11 -87 18 -95 19 -22 84 -21 104 2 10 10 17 34 17
53 1 19 5 53 9 77 8 41 7 42 -17 42 -20 0 -23 -3 -14 -12 15 -15 16 -122 2
-149 -14 -26 -55 -24 -74 3 -19 27 -22 128 -4 146 9 9 5 12 -18 12 l-29 0 6
-79z"/>
<path d="M3868 3893 c8 -3 12 -31 12 -88 0 -57 -4 -85 -12 -89 -7 -3 18 -4 57
-3 61 2 70 4 73 22 2 18 2 18 -8 3 -14 -23 -66 -24 -74 -2 -10 25 -7 124 4
145 10 17 7 19 -27 18 -21 0 -32 -3 -25 -6z"/>
<path d="M3977 3824 c-13 -13 -7 -27 7 -15 10 9 20 9 40 0 17 -8 30 -9 36 -3
6 6 3 10 -8 11 -9 1 -28 5 -42 8 -14 4 -29 3 -33 -1z"/>
<path d="M5932 5329 c2 -15 20 -26 76 -45 160 -53 301 -145 429 -277 168 -173
263 -356 310 -589 21 -109 21 -336 -1 -436 -79 -360 -286 -638 -599 -802 -135
-70 -327 -120 -464 -120 -52 0 -64 -3 -73 -20 -10 -19 -8 -20 68 -20 145 0
336 47 477 117 430 215 695 696 647 1175 -48 469 -347 857 -780 1012 -88 31
-94 32 -90 5z"/>
<path d="M2355 5316 c-268 -103 -504 -317 -632 -571 -129 -255 -162 -561 -92
-840 95 -374 374 -686 730 -816 106 -39 259 -69 350 -69 61 0 70 2 65 16 -3 9
-6 18 -6 20 0 2 -26 4 -57 4 -32 0 -94 6 -138 14 -468 84 -829 441 -920 913
-21 105 -20 324 0 433 55 285 213 536 449 712 81 60 227 137 304 159 30 9 42
18 42 31 0 24 -21 22 -95 -6z"/>
<path d="M2384 5160 c-156 -55 -321 -168 -418 -287 -49 -59 -50 -61 -37 -81 6
-11 21 -7 69 17 108 55 199 74 333 70 108 -4 119 -2 119 13 0 46 -230 45 -365
-2 -32 -11 -60 -18 -62 -16 -6 6 97 95 157 136 67 45 148 87 215 111 36 12 51
23 53 38 4 25 2 25 -64 1z"/>
<path d="M5932 5164 c2 -9 34 -27 75 -43 133 -52 271 -139 347 -220 35 -37 35
-37 -39 -11 -86 30 -216 43 -300 31 -38 -6 -73 -11 -77 -11 -5 0 -8 -8 -8 -18
0 -17 9 -18 128 -14 144 5 232 -12 344 -69 64 -32 86 -29 73 10 -4 12 -41 57
-83 100 -104 106 -214 178 -355 234 -78 31 -110 35 -105 11z"/>
<path d="M2208 4760 c-202 -34 -368 -176 -439 -376 -30 -83 -37 -228 -14 -314
49 -189 170 -326 352 -397 59 -23 84 -27 189 -28 l121 -1 36 -40 c35 -39 111
-83 123 -71 10 9 -15 45 -35 52 -19 6 -76 65 -96 99 -9 15 -16 16 -65 5 -69
-15 -177 -6 -254 21 -203 70 -346 274 -346 496 0 211 134 407 332 485 91 36
230 42 318 14 18 -6 21 -3 18 17 -2 19 -12 25 -58 35 -64 13 -116 14 -182 3z"/>
<path d="M6010 4757 c-64 -15 -80 -23 -80 -43 0 -17 13 -18 60 -4 19 6 73 11
120 11 386 0 625 -401 453 -759 -36 -75 -150 -190 -223 -225 -109 -53 -229
-69 -329 -46 -38 8 -46 7 -54 -7 -22 -39 -81 -94 -113 -106 -25 -9 -34 -18
-34 -35 0 -20 3 -21 25 -13 52 20 83 40 116 77 l34 38 115 0 c94 0 127 4 183
23 226 78 377 293 377 535 0 249 -164 472 -398 541 -76 22 -187 28 -252 13z"/>
<path d="M1931 3617 c-20 -20 -12 -34 59 -110 115 -123 256 -216 408 -268 101
-35 302 -62 302 -41 -1 21 -21 30 -82 36 -206 20 -426 123 -558 261 l-45 47
38 -16 c57 -23 178 -46 246 -46 55 0 65 -4 113 -40 54 -41 126 -73 191 -85 33
-6 35 -5 30 14 -4 14 -21 25 -62 36 -63 19 -112 45 -156 85 -27 25 -39 28
-130 33 -108 6 -226 38 -302 81 -30 17 -44 21 -52 13z"/>
<path d="M6380 3588 c-87 -44 -191 -68 -292 -68 -67 0 -73 -2 -111 -36 -43
-40 -105 -70 -176 -88 -32 -7 -47 -17 -49 -30 -4 -17 0 -18 37 -12 68 11 148
45 201 87 46 37 53 39 117 39 66 0 215 30 254 50 70 38 -52 -75 -156 -144
-135 -89 -278 -140 -433 -153 -59 -5 -75 -10 -84 -26 -10 -20 -8 -20 85 -13
159 11 339 75 474 167 55 38 173 148 213 199 28 35 28 38 12 51 -15 13 -26 10
-92 -23z"/>
<path d="M1826 3133 c232 -496 577 -881 1040 -1160 86 -52 276 -153 288 -153
2 0 7 7 10 16 4 9 -13 38 -46 77 -180 217 -318 559 -318 793 0 28 -3 65 -6 82
-6 30 -7 30 -101 42 -329 41 -639 180 -835 374 -26 25 -56 46 -67 46 -18 0
-15 -11 35 -117z m173 -94 c178 -123 416 -212 667 -249 80 -12 82 -13 88 -42
3 -17 6 -50 6 -73 0 -64 36 -233 71 -332 41 -117 107 -247 174 -345 30 -44 55
-82 55 -84 0 -18 -270 149 -402 248 -305 230 -549 516 -734 863 -54 102 -56
108 -29 87 17 -12 63 -45 104 -73z"/>
<path d="M6510 3184 c-109 -111 -316 -231 -508 -293 -96 -32 -281 -71 -335
-71 -72 0 -74 -3 -81 -103 -23 -301 -138 -591 -323 -813 -33 -39 -48 -65 -43
-74 11 -17 37 -8 160 57 530 281 927 701 1184 1256 44 94 45 97 23 97 -14 0
-43 -21 -77 -56z m-36 -136 c-119 -239 -273 -449 -478 -653 -144 -144 -251
-233 -397 -330 -102 -68 -255 -155 -271 -155 -5 0 4 17 20 38 140 178 249 463
273 711 5 57 12 108 15 113 3 4 22 8 42 8 53 0 254 44 348 75 151 50 325 143
434 229 25 20 46 36 48 36 1 0 -14 -33 -34 -72z"/>
<path d="M5319 2579 c-9 -13 -22 -52 -28 -84 -30 -151 -108 -334 -192 -446
-60 -82 -185 -204 -264 -258 -387 -267 -901 -266 -1284 2 -87 61 -211 186
-270 272 -88 127 -155 284 -180 419 -6 33 -19 71 -28 85 -16 24 -18 25 -21 6
-6 -29 17 -149 45 -235 152 -467 601 -790 1098 -790 375 0 747 194 952 496
106 156 203 425 191 529 l-3 29 -16 -25z"/>
<path d="M6535 6689 c-49 -27 -94 -50 -100 -53 -5 -2 12 -26 39 -54 27 -28 53
-49 57 -46 7 4 109 192 109 200 0 8 -19 0 -105 -47z"/>
<path d="M1032 5874 c-27 -18 -55 -71 -48 -89 5 -14 176 -115 195 -115 17 0
41 62 41 105 0 50 -14 71 -60 95 -47 24 -97 26 -128 4z"/>
<path d="M7392 5275 c-29 -8 -66 -22 -83 -30 -49 -26 -105 -89 -124 -140 -16
-41 -17 -53 -6 -94 25 -93 99 -137 218 -129 84 6 153 39 210 101 145 158 2
353 -215 292z"/>
<path d="M7500 3683 c0 -73 22 -107 80 -124 83 -25 148 14 157 94 l5 45 -73
17 c-41 9 -95 19 -121 22 l-48 6 0 -60z"/>
<path d="M7337 3213 c-2 -5 -12 -32 -22 -62 -15 -45 -15 -55 -4 -62 18 -11
226 -12 214 -1 -23 20 -174 132 -179 132 -3 0 -7 -3 -9 -7z"/>
<path d="M6779 2165 c-23 -31 -40 -57 -38 -59 10 -8 211 -87 215 -84 4 5 -124
198 -131 198 -2 0 -23 -25 -46 -55z"/>
<path d="M5940 1413 l-54 -36 64 -58 c86 -79 126 -108 118 -87 -4 8 -17 61
-29 117 -13 55 -28 101 -34 100 -5 0 -35 -16 -65 -36z"/>
</g>
</svg>
